<svg xmlns="http://www.w3.org/2000/svg">
  <symbol fill="currentcolor" id="arrow-down" width="16" height="16">
    <path d="M3.8 6.2a.67.67 0 1 0-.93.94l4.66 4.66a.66.66 0 0 0 .95 0l4.66-4.66a.67.67 0 0 0-.94-.94L8 10.39l-4.2-4.2Z"/>
  </symbol>

  <symbol fill="currentcolor" id="arrow-left" width="16" height="16">
    <path d="M8.86 13.14a.66.66 0 0 0 .95-.95L5.6 8l4.2-4.2a.67.67 0 0 0-.95-.94L4.2 7.52a.66.66 0 0 0 0 .94l4.66 4.68Z"/>
  </symbol>

  <symbol fill="currentcolor" id="arrow-right" width="16" height="16">
    <path d="M7.14 2.86a.66.66 0 1 0-.95.95L10.4 8l-4.2 4.2a.67.67 0 0 0 .95.94l4.66-4.67a.66.66 0 0 0 0-.94L7.15 2.86Z"/>
  </symbol>

  <symbol fill="currentcolor" id="arrow-up" width="16" height="16">
    <path d="M12.2 9.8a.67.67 0 1 0 .93-.94L8.47 4.2a.66.66 0 0 0-.95 0L2.86 8.86a.67.67 0 1 0 .94.94L8 5.61l4.2 4.2Z"/>
  </symbol>

  <symbol fill="currentcolor" id="cart" width="15" height="14">
    <path fill-rule="evenodd" clip-rule="evenodd" d="M1.17.1a.67.67 0 1 0 0 1.34h1.77l.47 2.34v.05l.97 4.83a1.83 1.83 0 0 0 1.82 1.47h5.62a1.83 1.83 0 0 0 1.82-1.47l.93-4.86a.67.67 0 0 0-.66-.8h-9.3L4.14.65a.67.67 0 0 0-.66-.53H1.17Zm4.52 8.3-.81-4.06h8.23l-.78 4.07a.5.5 0 0 1-.49.39H6.18a.5.5 0 0 1-.49-.4Zm-1.13 3.96a1.25 1.25 0 1 1 2.49 0 1.25 1.25 0 0 1-2.5 0Zm6.37 0a1.25 1.25 0 1 1 2.5 0 1.25 1.25 0 0 1-2.5 0Z"/>
  </symbol>

  <symbol fill="currentcolor" id="chevrons" width="8" height="6">
    <path d="M1.35.15a.5.5 0 1 0-.7.7L2.79 3 .65 5.15a.5.5 0 1 0 .7.7l2.5-2.5a.5.5 0 0 0 0-.7L1.35.15Zm3.5 0a.5.5 0 1 0-.7.7L6.29 3 4.15 5.15a.5.5 0 1 0 .7.7l2.5-2.5a.5.5 0 0 0 0-.7L4.85.15Z"/>
  </symbol>

  <symbol fill="currentcolor" id="cross" width="10" height="10">
    <path d="M9.8 1.14A.67.67 0 1 0 8.86.2L5 4.06 1.14.2a.67.67 0 1 0-.94.94L4.06 5 .2 8.86a.67.67 0 0 0 .94.94L5 5.94 8.86 9.8a.67.67 0 1 0 .94-.94L5.94 5 9.8 1.14Z"/>
  </symbol>

  <symbol fill="currentcolor" id="enter" width="14" height="15">
    <path fill-rule="evenodd" clip-rule="evenodd"  d="M8 1.52c0-.36.3-.66.67-.66h2.66a2 2 0 0 1 2 2v9.33a2 2 0 0 1-2 2H8.67a.67.67 0 0 1 0-1.33h2.66a.67.67 0 0 0 .67-.67V2.86a.67.67 0 0 0-.67-.67H8.67A.67.67 0 0 1 8 1.52Zm-3.14 2.2a.67.67 0 0 1 .94 0l3.33 3.33a.67.67 0 0 1 .2.47.66.66 0 0 1-.2.48L5.8 11.33a.67.67 0 1 1-.94-.94l2.2-2.2H.66a.67.67 0 1 1 0-1.33h6.4l-2.2-2.2a.67.67 0 0 1 0-.94Z"/>
  </symbol>

  <symbol fill="currentcolor" id="heart-fill" width="16" height="16">
    <path d="M13.9 3a3.67 3.67 0 0 0-5.2 0l-.7.7-.7-.7a3.67 3.67 0 0 0-5.2 5.18l.71.7L8 14.09l5.18-5.2.71-.7a3.67 3.67 0 0 0 0-5.19Z"/>
  </symbol>

  <symbol fill="currentcolor" id="search" width="14" height="14">
    <path fill-rule="evenodd" clip-rule="evenodd"  d="M1.66 6.19a4.67 4.67 0 1 1 9.34 0 4.67 4.67 0 0 1-9.34 0Zm8.42 4.69a6 6 0 1 1 .94-.94l2.45 2.44a.67.67 0 1 1-.94.95l-2.45-2.45Z"/>
  </symbol>

  <symbol fill="currentcolor" id="info" width="14" height="14">
    <path d="M7 2.13a4.88 4.88 0 1 0 0 9.75 4.88 4.88 0 0 0 0-9.75ZM.8 7a6.2 6.2 0 1 1 12.4 0A6.2 6.2 0 0 1 .8 7ZM7 6.33c.37 0 .67.3.67.67v2.22a.67.67 0 0 1-1.34 0V7c0-.37.3-.67.67-.67Zm0-2.21a.67.67 0 0 0 0 1.33.67.67 0 0 0 0-1.33Z"/>
  </symbol>

  <symbol fill="currentcolor" id="cow" width="33" height="32">
    <path d="M27.25 10.29A12.1 12.1 0 0 0 27.7.73a1 1 0 0 0-.34-.47 1.06 1.06 0 0 0-1.57.3c-1.32 2.28-4.16 5.96-6.24 6.13h-.1c-.95-.18-1.92-.28-2.9-.3-.98.02-1.95.12-2.91.3h-.07C11.49 6.53 8.6 2.85 7.28.56c-.1-.18-.24-.33-.42-.43a1.07 1.07 0 0 0-1.18.1 1 1 0 0 0-.33.5 12 12 0 0 0 .4 9.55c-1.81.22-4.1.78-4.94 2.2a2.15 2.15 0 0 0 0 2.22c.24.4.6.74 1.02.97.43.22.92.32 1.4.28a7.57 7.57 0 0 0 2.52-.48c0 .54.04 1.09.14 1.62a34.44 34.44 0 0 0 1.82 5.24c.2.47.41 1 .53 1.32-.34.81-.61 1.65-.8 2.5a4.32 4.32 0 0 0 1.16 3.33c1.51 1.67 4.16 2.52 7.93 2.52 3.77 0 6.43-.85 7.93-2.52a4.39 4.39 0 0 0 1.17-3.33c-.2-.85-.46-1.69-.8-2.5l.53-1.32c.75-1.7 1.36-3.45 1.82-5.24.1-.53.15-1.08.14-1.62.78.3 1.6.46 2.44.48a2.54 2.54 0 0 0 2.43-1.26 2.15 2.15 0 0 0 0-2.2c-.82-1.38-3.12-1.98-4.94-2.2Zm-.99-6.69c.38 2.1 0 4.27-1.04 6.15a7.49 7.49 0 0 0-2.82-2.14c1.5-1.13 2.8-2.48 3.86-4ZM6.8 3.6a16.96 16.96 0 0 0 3.85 4.03c-.73.3-1.4.74-1.97 1.27-.3.27-.57.57-.84.87A9.28 9.28 0 0 1 6.8 3.6ZM2.7 13.73c-.1-.16-.06-.21 0-.25.24-.4 1.45-1 3.76-1.24-.12.3-.22.58-.31.89-1.36.67-3.17 1.1-3.45.6Zm22.44 3.02a33.3 33.3 0 0 1-1.69 4.84c-.27.62-.51 1.25-.72 1.88l-.06.32.11.28c.33.77.6 1.56.8 2.36a2.33 2.33 0 0 1-.67 1.73C22.15 29 20.44 30 16.54 30c-3.9 0-5.6-1.01-6.36-1.83-.45-.47-.69-1.09-.67-1.73.2-.8.48-1.6.8-2.36l.12-.28-.07-.32c-.2-.64-.43-1.27-.7-1.89-.7-1.58-1.28-3.2-1.71-4.87a7 7 0 0 1 2.2-6.4c1.57-1.53 5.13-1.88 6.37-1.89 1.24 0 4.73.35 6.39 1.9.88.81 1.55 1.82 1.93 2.93.4 1.11.49 2.3.29 3.46v.04Zm5.2-3.02c-.27.48-2.08.07-3.37-.6-.09-.3-.19-.59-.3-.89 2.29.23 3.48.85 3.71 1.24.05.04.07.09-.02.25h-.02Z"/>
  </symbol>

  <symbol fill="black" id="icecream" width="16" height="32">
    <path d="M8 0A8 8 0 0 0 .06 7.06H0v15.89h16V7.05h-.06A8.01 8.01 0 0 0 8 0Zm6.12 21.06H1.88V12.4a1.69 1.69 0 0 0 1.45.6c1.22 0 2-.68 2-1.54v-.81a.81.81 0 1 1 1.62 0v3.1a1.76 1.76 0 0 0 2 1.71 1.75 1.75 0 0 0 1.99-1.64v-2.08a1.27 1.27 0 1 1 2.53 0v.08a1.06 1.06 0 0 0 .63.84v8.47l.02-.06ZM6.59 30.59a1.41 1.41 0 1 0 2.82 0v-6.7H6.6v6.7Z"/>
  </symbol>

  <symbol fill="currentcolor" id="leaf" width="20" height="32">
    <path d="M19.32 18.49C18.92 9.4 11.01.62 10.66.24h-.05l-.1-.13-.12-.07h-.51L9.71 0h-.05L9.5.11l-.1.1h-.04C9 .61 1.09 9.4.67 18.48v1.24c.34 9.84 9.04 12.24 9.11 12.26h.45c.08 0 8.77-2.47 9.1-12.26v-1.24ZM3.06 15.13a22.23 22.23 0 0 0 6.04 3.93v4.34c-2.21-1.15-5.62-3.2-6.62-5.01.08-1.1.26-2.2.55-3.26h.03Zm1.8-4.87a11.1 11.1 0 0 0 4.24 2.92v3.77c-2.02-.9-3.86-2.2-5.42-3.82.34-.98.74-1.94 1.18-2.87Zm11.5 2.87a17.3 17.3 0 0 1-5.43 3.82v-3.77c1.6-.62 3.03-1.62 4.2-2.92.46.92.86 1.86 1.22 2.83v.04Zm-5.43-1.97V3.52a43.23 43.23 0 0 1 3.3 4.94 8.28 8.28 0 0 1-3.32 2.66l.02.04Zm0 12.26v-4.36c2.2-.95 4.26-2.27 6.07-3.9.28 1.06.45 2.15.53 3.26-1 1.77-4.4 3.82-6.62 4.97l.02.03Zm-1.8-12.26a8.2 8.2 0 0 1-3.33-2.7 43.26 43.26 0 0 1 3.3-5l.02 7.7ZM2.66 21.4a30.16 30.16 0 0 0 6.43 4.1v4.2c-1.64-.7-3.09-1.84-4.21-3.29a11.52 11.52 0 0 1-2.22-5.01Zm8.24 8.3V25.5a29.68 29.68 0 0 0 6.43-4.1 11.37 11.37 0 0 1-2.2 5.04 10.53 10.53 0 0 1-4.23 3.28Z"/>
  </symbol>

  <symbol fill="currentcolor" id="thermometer" width="19" height="32">
    <path d="M11.19 5.07a5.3 5.3 0 0 0-1.37-3.59A4.49 4.49 0 0 0 6.52 0C5.28 0 4.1.53 3.22 1.48a5.3 5.3 0 0 0-1.36 3.59v14.75A7.69 7.69 0 0 0 .79 28.2a7 7 0 0 0 2.17 2.6 6.14 6.14 0 0 0 6.25.62c1-.46 1.89-1.19 2.57-2.12a7.78 7.78 0 0 0 1.13-6.7 7.3 7.3 0 0 0-1.72-2.98V5.07Zm.17 19.72c0 .88-.2 1.75-.58 2.52a5.02 5.02 0 0 1-1.63 1.9 4.5 4.5 0 0 1-4.62.28 4.88 4.88 0 0 1-1.82-1.68 5.44 5.44 0 0 1-.47-5c.32-.8.83-1.51 1.47-2.05V5.06c0-.8.3-1.58.82-2.15a2.7 2.7 0 0 1 2-.9c.74 0 1.45.33 1.98.9.53.57.82 1.35.82 2.16v15.5c.63.47 1.14 1.1 1.5 1.84.35.74.53 1.55.53 2.38Z"/>
  </symbol>

  <symbol fill="currentcolor" id="checkbox-checked" width="16" height="16">
    <path d="M1.62 1.62a.96.96 0 0 1 .68-.29h8.95a.67.67 0 1 0 0-1.33H2.3A2.3 2.3 0 0 0 0 2.3v11.4A2.3 2.3 0 0 0 2.3 16h11.4a2.3 2.3 0 0 0 2.3-2.3V8a.67.67 0 0 0-1.34 0v5.7a.96.96 0 0 1-.96.97H2.3a.96.96 0 0 1-.97-.97V2.3c0-.26.1-.5.29-.68Zm14.2.32a.67.67 0 1 0-.97-.92L7.6 8.66 5.78 6.73a.67.67 0 0 0-.97.91l2.32 2.45a.67.67 0 0 0 .97 0l7.72-8.15Z"/>
  </symbol>

  <symbol fill="currentcolor" id="checkbox-unchecked" width="16" height="16">
    <path d="M1.62 1.62a.96.96 0 0 1 .68-.29h11.4c.24 0 .34.03.4.06a1 1 0 0 1 .28.23c.21.2.29.43.29.68V13.7a.96.96 0 0 1-.97.96H2.3a.96.96 0 0 1-.97-.96V2.3c0-.26.1-.5.29-.68Zm14.22 12.92A2.3 2.3 0 0 1 13.7 16H2.3A2.3 2.3 0 0 1 0 13.7V2.3A2.3 2.3 0 0 1 1.46.16c.11-.1.27-.16.43-.16H13.7c.34 0 .65.04.94.17.28.12.5.31.69.5.48.48.67 1.06.67 1.63v11.8c0 .18-.06.33-.16.44Z"/>
  </symbol>

  <symbol fill="currentcolor" id="radio-checked" width="16" height="16">
    <g clip-path="url(#a)">
      <path d="M14.67 8A6.67 6.67 0 1 1 1.33 8a6.67 6.67 0 0 1 13.34 0ZM8 16A8 8 0 1 0 8 0a8 8 0 0 0 0 16Zm0-5a3 3 0 1 0 0-6 3 3 0 0 0 0 6Z"/>
    </g>
    <defs>
      <clipPath id="a">
        <path fill="#fff" d="M0 0h16v16H0z"/>
      </clipPath>
    </defs>
  </symbol>

  <symbol fill="currentcolor" id="radio-unchecked" width="16" height="16">
    <path d="M8 1.33a6.67 6.67 0 0 0 0 13.34A6.67 6.67 0 0 0 8 1.33ZM8 16A8 8 0 1 1 8 0a8 8 0 0 1 0 16Z"/>
  </symbol>

  <symbol fill="currentcolor" id="range-fill" width="16" height="16">
    <circle cx="8" cy="8" r="8" fill="#2D3440"/>
    <circle cx="8" cy="8" r="2"/>
  </symbol>

  <symbol fill="currentcolor" id="telegram" width="24" height="24">
    <path fill-rule="evenodd" clip-rule="evenodd" d="M24 12a12 12 0 1 1-24 0 12 12 0 0 1 24 0ZM12.43 8.86c-1.17.48-3.5 1.49-7 3.01-.57.23-.86.45-.9.67-.04.36.42.5 1.04.7l.27.08c.6.2 1.43.44 1.86.45.39 0 .82-.16 1.3-.48 3.27-2.21 4.96-3.33 5.06-3.35.08-.02.18-.04.25.02.07.07.07.18.06.22-.05.19-1.84 1.86-2.77 2.72a28.24 28.24 0 0 0-.82.79c-.57.54-1 .96.02 1.63.5.32.89.59 1.28.85a88.77 88.77 0 0 0 1.8 1.23c.5.35.95.67 1.5.62.32-.03.65-.33.82-1.23.4-2.13 1.18-6.73 1.36-8.63.01-.16 0-.31-.02-.47a.5.5 0 0 0-.17-.33.78.78 0 0 0-.46-.14c-.46.01-1.15.25-4.48 1.64Z"/>
  </symbol>

  <symbol fill="currentcolor" id="vk" width="24" height="24">
    <path fill-rule="evenodd" clip-rule="evenodd" d="M24 12a12 12 0 1 1-24 0 12 12 0 0 1 24 0Zm-11.41 2.97h-.72s-1.58.09-2.98-1.18C7.37 12.4 6.03 9.65 6.03 9.65s-.07-.18 0-.27c.1-.1.36-.1.36-.1l1.72-.01s.16.02.27.1c.1.05.15.17.15.17s.28.61.65 1.17c.71 1.08 1.05 1.32 1.29 1.2.35-.16.25-1.53.25-1.53s0-.5-.18-.71c-.14-.17-.41-.22-.53-.24-.1-.01.06-.2.26-.3.31-.13.86-.13 1.5-.13.5 0 .65.03.84.07.46.1.44.41.41 1.08l-.02.7v.18c-.01.34-.02.73.23.88.13.07.45 0 1.26-1.19.38-.56.66-1.23.66-1.23s.07-.12.16-.17c.1-.05.24-.04.24-.04h1.8s.54-.06.63.15c.1.23-.2.75-.94 1.61-.7.82-1.03 1.12-1 1.38.01.2.23.38.66.72.89.73 1.13 1.1 1.18 1.2l.01.01c.4.58-.44.62-.44.62l-1.6.02s-.34.06-.8-.2a3.94 3.94 0 0 1-.69-.6c-.33-.34-.65-.66-.91-.58-.45.12-.44.96-.44.96s0 .18-.1.28c-.1.1-.32.12-.32.12Z"/>
  </symbol>

  <symbol fill="currentcolor" id="youtube" width="24" height="24">
    <path d="m14 11.8-2.8-1.32c-.25-.11-.45.01-.45.29v2.46c0 .28.2.4.45.29L14 12.2c.25-.12.25-.3 0-.42ZM12 0a12 12 0 1 0 0 24 12 12 0 0 0 0-24Zm0 16.88c-6.14 0-6.25-.56-6.25-4.88s.1-4.88 6.25-4.88c6.14 0 6.25.56 6.25 4.88s-.1 4.88-6.25 4.88Z"/>
  </symbol>

</svg>

