<svg xmlns="http://www.w3.org/2000/svg">
  <symbol fill="currentcolor" id="arrow-left" width="16" height="16">
    <path d="M8.86 13.14a.66.66 0 0 0 .95-.95L5.6 8l4.2-4.2a.67.67 0 0 0-.95-.94L4.2 7.52a.66.66 0 0 0 0 .94l4.66 4.68Z"/>
  </symbol>

  <symbol fill="currentcolor" id="arrow-right" width="16" height="16">
    <path d="M7.14 2.86a.66.66 0 1 0-.95.95L10.4 8l-4.2 4.2a.67.67 0 0 0 .95.94l4.66-4.67a.66.66 0 0 0 0-.94L7.15 2.86Z"/>
  </symbol>

  <symbol fill="currentcolor" id="cart" width="15" height="14">
    <path fill-rule="evenodd" clip-rule="evenodd" d="M1.17.1a.67.67 0 1 0 0 1.34h1.77l.47 2.34v.05l.97 4.83a1.83 1.83 0 0 0 1.82 1.47h5.62a1.83 1.83 0 0 0 1.82-1.47l.93-4.86a.67.67 0 0 0-.66-.8h-9.3L4.14.65a.67.67 0 0 0-.66-.53H1.17Zm4.52 8.3-.81-4.06h8.23l-.78 4.07a.5.5 0 0 1-.49.39H6.18a.5.5 0 0 1-.49-.4Zm-1.13 3.96a1.25 1.25 0 1 1 2.49 0 1.25 1.25 0 0 1-2.5 0Zm6.37 0a1.25 1.25 0 1 1 2.5 0 1.25 1.25 0 0 1-2.5 0Z"/>
  </symbol>

  <symbol fill="currentcolor" id="enter" width="14" height="15">
    <path fill-rule="evenodd" clip-rule="evenodd"  d="M8 1.52c0-.36.3-.66.67-.66h2.66a2 2 0 0 1 2 2v9.33a2 2 0 0 1-2 2H8.67a.67.67 0 0 1 0-1.33h2.66a.67.67 0 0 0 .67-.67V2.86a.67.67 0 0 0-.67-.67H8.67A.67.67 0 0 1 8 1.52Zm-3.14 2.2a.67.67 0 0 1 .94 0l3.33 3.33a.67.67 0 0 1 .2.47.66.66 0 0 1-.2.48L5.8 11.33a.67.67 0 1 1-.94-.94l2.2-2.2H.66a.67.67 0 1 1 0-1.33h6.4l-2.2-2.2a.67.67 0 0 1 0-.94Z"/>
  </symbol>

  <symbol fill="currentcolor" id="search" width="14" height="14">
    <path fill-rule="evenodd" clip-rule="evenodd"  d="M1.66 6.19a4.67 4.67 0 1 1 9.34 0 4.67 4.67 0 0 1-9.34 0Zm8.42 4.69a6 6 0 1 1 .94-.94l2.45 2.44a.67.67 0 1 1-.94.95l-2.45-2.45Z"/>
  </symbol>

  <symbol fill="currentcolor" id="info" width="14" height="14">
    <path d="M7 2.13a4.88 4.88 0 1 0 0 9.75 4.88 4.88 0 0 0 0-9.75ZM.8 7a6.2 6.2 0 1 1 12.4 0A6.2 6.2 0 0 1 .8 7ZM7 6.33c.37 0 .67.3.67.67v2.22a.67.67 0 0 1-1.34 0V7c0-.37.3-.67.67-.67Zm0-2.21a.67.67 0 0 0 0 1.33.67.67 0 0 0 0-1.33Z"/>
  </symbol>

  <symbol fill="currentcolor" id="telegram" width="24" height="24">
    <path fill-rule="evenodd" clip-rule="evenodd" d="M24 12a12 12 0 1 1-24 0 12 12 0 0 1 24 0ZM12.43 8.86c-1.17.48-3.5 1.49-7 3.01-.57.23-.86.45-.9.67-.04.36.42.5 1.04.7l.27.08c.6.2 1.43.44 1.86.45.39 0 .82-.16 1.3-.48 3.27-2.21 4.96-3.33 5.06-3.35.08-.02.18-.04.25.02.07.07.07.18.06.22-.05.19-1.84 1.86-2.77 2.72a28.24 28.24 0 0 0-.82.79c-.57.54-1 .96.02 1.63.5.32.89.59 1.28.85a88.77 88.77 0 0 0 1.8 1.23c.5.35.95.67 1.5.62.32-.03.65-.33.82-1.23.4-2.13 1.18-6.73 1.36-8.63.01-.16 0-.31-.02-.47a.5.5 0 0 0-.17-.33.78.78 0 0 0-.46-.14c-.46.01-1.15.25-4.48 1.64Z"/>
  </symbol>

  <symbol fill="currentcolor" id="vk" width="24" height="24">
    <path fill-rule="evenodd" clip-rule="evenodd" d="M24 12a12 12 0 1 1-24 0 12 12 0 0 1 24 0Zm-11.41 2.97h-.72s-1.58.09-2.98-1.18C7.37 12.4 6.03 9.65 6.03 9.65s-.07-.18 0-.27c.1-.1.36-.1.36-.1l1.72-.01s.16.02.27.1c.1.05.15.17.15.17s.28.61.65 1.17c.71 1.08 1.05 1.32 1.29 1.2.35-.16.25-1.53.25-1.53s0-.5-.18-.71c-.14-.17-.41-.22-.53-.24-.1-.01.06-.2.26-.3.31-.13.86-.13 1.5-.13.5 0 .65.03.84.07.46.1.44.41.41 1.08l-.02.7v.18c-.01.34-.02.73.23.88.13.07.45 0 1.26-1.19.38-.56.66-1.23.66-1.23s.07-.12.16-.17c.1-.05.24-.04.24-.04h1.8s.54-.06.63.15c.1.23-.2.75-.94 1.61-.7.82-1.03 1.12-1 1.38.01.2.23.38.66.72.89.73 1.13 1.1 1.18 1.2l.01.01c.4.58-.44.62-.44.62l-1.6.02s-.34.06-.8-.2a3.94 3.94 0 0 1-.69-.6c-.33-.34-.65-.66-.91-.58-.45.12-.44.96-.44.96s0 .18-.1.28c-.1.1-.32.12-.32.12Z"/>
  </symbol>

  <symbol fill="currentcolor" id="youtube" width="24" height="24">
    <path d="m14 11.8-2.8-1.32c-.25-.11-.45.01-.45.29v2.46c0 .28.2.4.45.29L14 12.2c.25-.12.25-.3 0-.42ZM12 0a12 12 0 1 0 0 24 12 12 0 0 0 0-24Zm0 16.88c-6.14 0-6.25-.56-6.25-4.88s.1-4.88 6.25-4.88c6.14 0 6.25.56 6.25 4.88s-.1 4.88-6.25 4.88Z"/>
  </symbol>

</svg>

